<svg id="Layer_1" data-name="Layer 1" xmlns="http://www.w3.org/2000/svg" width="500" height="500" viewBox="0 0 500 500"><defs><style>.cls-1{fill:#ccc;}.cls-2{fill:#4f4f4f;}.cls-3{fill:#d8d9d8;}.cls-4{fill:#404040;}.cls-5,.cls-8{fill:none;stroke-linecap:round;stroke-linejoin:round;stroke-width:30px;}.cls-5{stroke:#63bd5c;}.cls-6{fill:#8e9092;}.cls-7{fill:#b42024;}.cls-8{stroke:#fff;}</style></defs><title>access-error-logs</title><rect class="cls-1" x="190" y="300" width="130" height="150" rx="14" ry="14"/><rect class="cls-2" x="20" y="50" width="460" height="330" rx="30" ry="30"/><path class="cls-3" d="M480,330v30a30.09,30.09,0,0,1-30,30H50a30.09,30.09,0,0,1-30-30V330"/><rect class="cls-4" x="50" y="80" width="400" height="220"/><line class="cls-5" x1="140.76" y1="120" x2="280" y2="120"/><circle class="cls-4" cx="290" cy="260" r="40"/><path class="cls-3" d="M340,450H170a10,10,0,0,1-10-10h0a10,10,0,0,1,10-10H340a10,10,0,0,1,10,10h0A10,10,0,0,1,340,450Z"/><circle class="cls-6" cx="260" cy="360" r="10"/><line class="cls-5" x1="140.76" y1="170" x2="250" y2="170"/><line class="cls-5" x1="140.76" y1="220" x2="220" y2="220"/><line class="cls-5" x1="90" y1="120" x2="100" y2="120"/><line class="cls-5" x1="90" y1="170" x2="100" y2="170"/><line class="cls-5" x1="90" y1="220" x2="100" y2="220"/><circle class="cls-7" cx="400" cy="360" r="90"/><line class="cls-8" x1="400" y1="310.76" x2="400" y2="360"/><line class="cls-8" x1="400" y1="410" x2="400" y2="409.24"/></svg>