<svg id="Layer_1" data-name="Layer 1" xmlns="http://www.w3.org/2000/svg" width="500" height="500" viewBox="0 0 500 500"><defs><style>.cls-1{fill:#1192c6;}.cls-2{fill:#0e7797;}.cls-3{fill:#fff;}.cls-4{fill:#63bd5c;}.cls-5{fill:#079247;}</style></defs><title>domains</title><g id="duAdmb.tif"><path class="cls-1" d="M349.48,398.33,337.39,384c-2.49-2.94-5.07-5.82-7.44-8.86-4.72-6.06-9.34-12.19-14-18.33-9.7-12.89-19.1-26-27.78-39.6a309.17,309.17,0,0,1-20.4-36.71,175.39,175.39,0,0,1-11.24-31.26,116.82,116.82,0,0,1-3.26-20.42,90.24,90.24,0,0,1,.1-13.57,84.94,84.94,0,0,1,1.76-11.62A79.7,79.7,0,0,1,270,172.32c2.37-3.08,5-6,7.54-8.9a95.32,95.32,0,0,1,35.18-25.69,96.86,96.86,0,0,1,33-7.67,95.82,95.82,0,0,1,18.66.71,102.09,102.09,0,0,1,12.68,2.56A95.94,95.94,0,0,1,410,149.46a92.73,92.73,0,0,1,33.29,47,87,87,0,0,1,4.12,24.5c.08,4.06,0,8.11,0,12.17a93,93,0,0,1-1.28,14.41,118.88,118.88,0,0,1-5.29,20.4,186.22,186.22,0,0,1-15.09,31.84,363.1,363.1,0,0,1-21.67,32.68c-8,10.9-16.24,21.69-24.41,32.5-3.19,4.23-6.3,8.54-9.77,12.53-6.37,7.34-13,14.48-19.58,21.79C350,398.88,349.72,398.61,349.48,398.33Z"/></g><circle class="cls-2" cx="349.58" cy="231.25" r="72.88"/><path class="cls-3" d="M347.69,185c26-.19,47.62,21.29,47.7,47.53.08,25.26-20.16,47.82-47.6,47.9-27.12.07-47.6-22.06-47.79-47.39C299.8,206.67,321.38,184.82,347.69,185Zm0,53.3H337.13c-.57,0-1.18-.06-1,.88.53,3.65.86,7.34,1.56,11a45.23,45.23,0,0,0,5.46,14.93,25.36,25.36,0,0,0,3.1,4c1,1.14,1.79,1.09,2.92.06a13.4,13.4,0,0,0,1.67-1.85A38.09,38.09,0,0,0,356.56,255a67.55,67.55,0,0,0,2.64-14.9c.11-1.76.12-1.76-1.65-1.76Zm-11.66-11.74c.52,0,.88.1,1.23.1h21.22c.53,0,.79-.2.71-.8-.12-.86-.17-1.72-.25-2.58a64.7,64.7,0,0,0-3-14.63,33.79,33.79,0,0,0-6-11.57c-1.86-2.19-2.73-2.17-4.62,0a28.61,28.61,0,0,0-4.77,8.28,63.48,63.48,0,0,0-4,15.72C336.4,222.83,336.27,224.65,336.08,226.56ZM331.79,266c-.13-.36-.26-.72-.4-1.07a79.53,79.53,0,0,1-5.64-25.6c-.06-.85-.35-1.08-1.13-1.07-4,0-8.07,0-12.11,0-.49,0-1,.09-1.56.14a37.1,37.1,0,0,0,8.59,18.49A32.59,32.59,0,0,0,331.79,266Zm52.53-27.56a1.57,1.57,0,0,0-.36-.09l-13.5-.07c-.6,0-.76.29-.82.87-.23,2.48-.45,5-.78,7.44a69.81,69.81,0,0,1-5,18.64c-.11.26-.17.53-.27.86C372.08,264.23,384.76,247.25,384.33,238.47Zm.07-11.93a37.74,37.74,0,0,0-10.13-19.88A35.11,35.11,0,0,0,363.55,199c.14.48.18.7.27.9,3.54,8.19,5.1,16.84,5.81,25.67.07.82.29,1.1,1.11,1.09,4.14,0,8.27,0,12.41,0C383.51,226.64,383.87,226.59,384.39,226.55Zm-52.6-27.37c-8.4,2-21.28,19.1-20.59,27.38.38,0,.77.09,1.16.1,1.3,0,2.6,0,3.91,0,2.74,0,5.48,0,8.22,0,.82,0,1.3-.11,1.29-1.13a31.2,31.2,0,0,1,.33-3.28,79,79,0,0,1,3.46-17C330.2,203.25,331,201.28,331.79,199.18Z"/><g id="duAdmb.tif-2" data-name="duAdmb.tif"><path class="cls-4" d="M203.85,463.51l-19.3-22.8c-4-4.7-8.1-9.29-11.88-14.14-7.53-9.67-14.91-19.46-22.28-29.26C134.9,376.73,119.9,355.81,106,334.09a493.55,493.55,0,0,1-32.57-58.6,280,280,0,0,1-17.94-49.9,186.49,186.49,0,0,1-5.2-32.6,144,144,0,0,1,.16-21.66,135.6,135.6,0,0,1,2.81-18.55A127.23,127.23,0,0,1,77,102.7c3.79-4.91,8-9.51,12-14.2a152.17,152.17,0,0,1,56.17-41,154.63,154.63,0,0,1,52.66-12.24,153,153,0,0,1,29.79,1.14,163,163,0,0,1,20.24,4.09,153.16,153.16,0,0,1,52.55,25.74c25.6,19.39,43.45,44.32,53.14,75a138.92,138.92,0,0,1,6.58,39.12c.13,6.47,0,13,0,19.43a148.51,148.51,0,0,1-2,23,189.77,189.77,0,0,1-8.45,32.57c-6.26,17.78-14.62,34.57-24.09,50.82A579.63,579.63,0,0,1,291,358.33c-12.84,17.4-25.93,34.62-39,51.87-5.1,6.75-10.06,13.63-15.59,20-10.17,11.72-20.72,23.11-31.25,34.79C204.62,464.38,204.22,464,203.85,463.51Z"/></g><circle class="cls-5" cx="205.11" cy="196.78" r="116.35"/><path class="cls-3" d="M286.94,197.65c-.33,43.46-35.47,81.43-82,81.31-47.07-.12-81.8-38.83-81.67-82.17.14-45,37.18-81.87,81.83-81.55C250.27,114.94,287.29,152.44,286.94,197.65Zm-98.73,9c-3,0-3,0-2.83,3a115.89,115.89,0,0,0,4.53,25.57c2.23,7.54,5.09,14.81,9.87,21.17a23,23,0,0,0,2.87,3.17c1.95,1.77,3.21,1.86,5-.1a43.52,43.52,0,0,0,5.32-6.9A77.6,77.6,0,0,0,222.36,227c1.19-6.2,1.77-12.53,2.67-18.79.23-1.6-.81-1.5-1.79-1.5q-9.1,0-18.2,0Zm35.87-29.62a108.91,108.91,0,0,0-6.86-27c-2.09-5.1-4.5-10-8.18-14.21-3.23-3.67-4.73-3.69-7.92.06-4.94,5.81-7.85,12.71-10.22,19.85a111,111,0,0,0-5.17,25.1c-.13,1.48-.21,3-.42,4.43-.15,1,.3,1.36,1.21,1.37l1,0h35.38c.61,0,1.22-.1,2.11-.17C224.72,183.28,224.5,180.16,224.08,177.07Zm29.34,61.61A63.64,63.64,0,0,0,268.17,207c-1-.1-1.85-.24-2.68-.24-6.92,0-13.85,0-20.77,0-1.34,0-1.84.39-1.94,1.84-1.07,15.11-3.75,29.88-9.68,43.92-.25.6-.46,1.22-.69,1.83A55.92,55.92,0,0,0,253.42,238.68Zm-75.62,15.75c-.17-.56-.28-1-.47-1.47a119.76,119.76,0,0,1-8.56-32c-.56-4.24-.95-8.5-1.34-12.76-.09-1-.37-1.49-1.4-1.48l-23.15.12a2.69,2.69,0,0,0-.62.15C141.53,222.06,163.28,251.19,177.81,254.43ZM144.29,186.7c7.1,0,14.19,0,21.29,0,1.4,0,1.79-.47,1.9-1.87,1.23-15.15,3.89-30,10-44,.15-.34.22-.72.46-1.54a60.23,60.23,0,0,0-18.38,13.16,64.74,64.74,0,0,0-17.37,34.1C143.06,186.61,143.67,186.7,144.29,186.7Zm92-36.66a135.59,135.59,0,0,1,5.93,29.15,53.52,53.52,0,0,1,.56,5.62c0,1.75.8,1.95,2.21,1.93,4.7,0,9.4,0,14.09,0,2.23,0,4.47,0,6.7,0,.67,0,1.34-.11,2-.16,1.18-14.2-20.91-43.62-35.33-47C233.74,143.19,235.12,146.57,236.24,150Z"/></svg>