<svg id="Layer_1" data-name="Layer 1" xmlns="http://www.w3.org/2000/svg" width="500" height="500" viewBox="0 0 500 500"><defs><style>.cls-1,.cls-4{fill:#e6e7e7;}.cls-1,.cls-2,.cls-3{opacity:0.5;}.cls-2,.cls-5{fill:#d8d9d8;}.cls-3,.cls-6{fill:#aaaaab;}.cls-7{fill:#ba793c;}.cls-8{fill:#63bd5c;}.cls-9{fill:#e7b174;}.cls-10{fill:#f1c182;}</style></defs><title>email-accounts</title><path class="cls-1" d="M238.72,303.06,373.87,201.69c17.7-13.27,17.7-35,0-48.27L238.72,52.06c-17.7-13.27-46.66-13.27-64.36,0L39.21,153.42c-17.7,13.27-17.7,35,0,48.27L174.36,303.06C192.06,316.33,221,316.33,238.72,303.06Z"/><path class="cls-2" d="M26,172V356.37A19.69,19.69,0,0,0,45.63,376H367.37A19.69,19.69,0,0,0,387,356.37V172"/><path class="cls-3" d="M371.37,172.21c.65,8-3.36,16.25-12,22.37L235.92,281.47c-16.16,11.38-42.6,11.38-58.77,0L53.75,194.58c-8.69-6.11-12.69-14.32-12-22.37Z"/><path class="cls-1" d="M33.79,365.52a30.8,30.8,0,0,1,11.09-13.38l130.58-92.68c17.1-12.14,45.08-12.14,62.18,0l130.58,92.68a30.8,30.8,0,0,1,11.09,13.38A19.11,19.11,0,0,1,362.07,376H51A19.11,19.11,0,0,1,33.79,365.52Z"/><path class="cls-4" d="M322.79,373.06,457.94,271.69c17.7-13.27,17.7-35,0-48.27L322.79,122.06c-17.7-13.27-46.66-13.27-64.36,0L123.27,223.42c-17.7,13.27-17.7,35,0,48.27L258.43,373.06C276.13,386.33,305.09,386.33,322.79,373.06Z"/><path class="cls-5" d="M110,242V426.37A19.69,19.69,0,0,0,129.63,446H451.37A19.69,19.69,0,0,0,471,426.37V242"/><path class="cls-6" d="M455.44,242c.65,8-3.36,16.25-12,22.37L320,351.25c-16.16,11.38-42.6,11.38-58.77,0L137.82,264.37c-8.69-6.11-12.69-14.32-12-22.37Z"/><path class="cls-4" d="M117.85,435.52a30.8,30.8,0,0,1,11.09-13.38l130.58-92.68c17.1-12.14,45.08-12.14,62.18,0l130.58,92.68a30.8,30.8,0,0,1,11.09,13.38A19.11,19.11,0,0,1,446.13,446H135.08A19.11,19.11,0,0,1,117.85,435.52Z"/><path class="cls-7" d="M387.89,285.8c0,22.17-15.22,40.13-34,40.13s-34-18-34-40.13c.08-45.16,15.22-40.13,34-40.13S387.89,263.63,387.89,285.8Z"/><path class="cls-8" d="M466.35,411.32c-1.95-5-8.48-11.45-14.53-14.3l-41.58-19.59a142.76,142.76,0,0,0-23.15-8.06H375.91a142.76,142.76,0,0,0-23.15,8.06L311.31,397c-6,2.85-12.61,9.3-14.6,14.33s-3.63,9.17-3.66,9.19v26h.2C296.17,454,334.56,460,381.53,460s85.36-6,88.27-13.53h.2v-26S468.29,416.33,466.35,411.32Z"/><path class="cls-7" d="M407.19,317.18H378.58c-14.68,0-26.7-12.6-26.7-28l-12-24c0-15.4,12-35.18,26.7-35.18l56.31,12.31c14.68,0,13.35,12.6,13.35,28l-2.39,18.87C433.89,304.58,421.88,317.18,407.19,317.18Z"/><path class="cls-9" d="M408.07,376.84V327.29H355V377l-5.28,2.52L338.3,385c3.25,9.78,21.27,17.27,43,17.27,22,0,40.18-7.66,43.12-17.61Z"/><path class="cls-10" d="M424.39,279.84c0-6.45-23.67,23.45-43.55,7.45-18.78-15.12-43.55-11.51-43.55-5.06v42.53h.22C340,351.19,365.42,376,380.89,376c15,0,40.82-24.78,43.38-51.21h.22V281.94Z"/></svg>