<svg id="Layer_1" data-name="Layer 1" xmlns="http://www.w3.org/2000/svg" width="500" height="500" viewBox="0 0 500 500"><defs><style>.cls-1{fill:#d0cfce;}.cls-2{fill:#eaeaea;}.cls-3{fill:#acabab;}.cls-4{fill:#fdb515;}.cls-5{fill:#fff;}</style></defs><title>mysql-databases</title><path class="cls-1" d="M426.56,345.82V285.67H70.85V352.6c0,42.43,80,76.84,178,76.84S426.35,395,426.35,352.6c0-2.28.21-4.5.21-6.78Z"/><path class="cls-2" d="M426.55,290.09V256.28H408.4c-29-25.46-89.58-43-159.71-43s-130.74,17.52-159.61,43H70.84v33.81c0,42.43,79.62,76.84,177.87,76.84s177.87-34.4,177.87-76.84Z"/><path class="cls-3" d="M425.85,194.55H71l-.21,78.19c0,42.54,79.62,77,177.87,77s177.87-34.49,177.87-77V194.55Z"/><path class="cls-1" d="M426.56,247.15V187H70.85v66.92c0,42.43,80,76.84,178,76.84s177.51-34.4,177.51-76.84c0-2.3.21-4.42.21-6.76Z"/><path class="cls-2" d="M426.55,199.37V165.56H408.4c-29-25.46-89.58-43-159.71-43s-130.74,17.52-159.61,43H70.84v33.81c0,42.43,79.62,76.84,177.87,76.84s177.87-34.4,177.87-76.84Z"/><path class="cls-3" d="M425.85,103.69H71l-.21,78.19c0,42.54,79.62,77,177.87,77s177.87-34.47,177.87-77V103.69Z"/><path class="cls-1" d="M426.56,156.52V96.27H70.85v66.92c0,42.43,80,76.84,178,76.84s177.51-34.4,177.51-76.84c0-2.28.21-4.56.21-6.68Z"/><ellipse class="cls-2" cx="248.7" cy="96.27" rx="177.87" ry="76.84"/><circle class="cls-4" cx="384.51" cy="385.76" r="96.33"/><path class="cls-5" d="M380.85,421.9a8.58,8.58,0,0,1-1.18-.78q-4.5-4-9-8a30.07,30.07,0,0,1-7.06-10.42c-.24-.55-.54-1.07-.81-1.61l-.31,0c-.24,1.2-.5,2.41-.7,3.62-.24,1.42-.36,2.87-.67,4.28-.82,3.83-4.43,5.12-7.53,2.69a14.76,14.76,0,0,1-4.29-5.91,31.83,31.83,0,0,1-2.29-17.09,55.55,55.55,0,0,1,2.31-10.22c.64-1.93.18-2.9-1-4.42a39.19,39.19,0,0,1-4.44-8c-1.37-3.21-2.25-6.62-3.46-9.9a17.63,17.63,0,0,0-2-3.83c-1.37-2-2.88-3.89-4.37-5.8a17.32,17.32,0,0,1-3.36-6.59v-1.52a25.73,25.73,0,0,1,1.39-3.12c1-1.64,2.72-2.14,4.47-2.52h1.52a27.91,27.91,0,0,1,9.61,3.49,38.87,38.87,0,0,1,4.17,2.89,5.08,5.08,0,0,0,3.23,1.26,32.32,32.32,0,0,1,17,5.07c11,6.85,20.1,15.58,26.59,26.85,1.79,3.11,3,6.57,4.49,9.84,2.5,5.37,5.07,10.7,7.59,16.06a6.41,6.41,0,0,0,3.86,3.48c8.13,3,15,8,21.41,13.73a35,35,0,0,1,3.34,4c.49.59.25.89-.41,1-1.9.44-3.78.92-5.68,1.32-2.89.61-5.79,1.16-8.69,1.74l-1.69.35a12.62,12.62,0,0,0,1.71,2.17,29.62,29.62,0,0,0,4.17,2.9,35.56,35.56,0,0,1,11,9.4c.46.59,1.12,1,1.58,1.63.75,1,1.42,2,2.12,3l-.35.29c-.68-.61-1.33-1.27-2-1.83a46.5,46.5,0,0,0-10.72-6.49"/><path class="cls-5" d="M352.76,405.17a6.54,6.54,0,0,0,2.57,3.27c1,.57,1.32.44,1.47-.71.29-2.15.51-4.3.81-6.45"/><path class="cls-5" d="M417.8,421.21a68.6,68.6,0,0,1,7.9-2.23,68.08,68.08,0,0,1,7.77-.56c.38,0,.76,0,1.14,0l.15-.28a6.48,6.48,0,0,0-1.12-1.33c-4.15-2.83-8.2-5.83-12.54-8.34a34.15,34.15,0,0,0-8.11-3,9,9,0,0,1-6.16-5c-1.94-4.11-3.94-8.2-5.83-12.34-1.55-3.38-2.92-6.84-4.48-10.21a63.09,63.09,0,0,0-11.38-16.68,60.18,60.18,0,0,0-21.9-15.42,27.74,27.74,0,0,0-5.87-1.36c-1.71-.27-3.47-.16-5.18-.4a4.3,4.3,0,0,1-2.19-1"/><path class="cls-5" d="M357.87,358.73l-4.2-6.55c2.32-1,4-.1,5.14,1.92A3.4,3.4,0,0,1,357.87,358.73Z"/><ellipse class="cls-4" cx="248.7" cy="97.76" rx="129.47" ry="48.33"/></svg>