<svg id="Layer_1" data-name="Layer 1" xmlns="http://www.w3.org/2000/svg" width="500" height="500" viewBox="0 0 500 500"><defs><style>.cls-1{fill:#d8d9d8;}.cls-2{fill:#404040;}.cls-3{fill:#aeaeae;}.cls-4{fill:none;stroke-width:30px;}.cls-4,.cls-5{stroke:#63bd5c;stroke-linecap:round;stroke-linejoin:round;}.cls-5{fill:#63bd5c;stroke-width:10px;}</style></defs><title>ssh-access</title><rect class="cls-1" x="20" y="40" width="460" height="420" rx="35" ry="35"/><path class="cls-2" d="M450,120V404.06a30.52,30.52,0,0,1-30.43,30.43H80.43A30.52,30.52,0,0,1,50,404.06V120"/><circle class="cls-3" cx="62.66" cy="82.66" r="12.66"/><circle class="cls-3" cx="100.63" cy="82.66" r="12.66"/><circle class="cls-3" cx="141.13" cy="82.66" r="12.66"/><path class="cls-3" d="M287.5,70h150A12.5,12.5,0,0,1,450,82.5h0A12.5,12.5,0,0,1,437.5,95h-150A12.5,12.5,0,0,1,275,82.5h0A12.5,12.5,0,0,1,287.5,70Z"/><line class="cls-4" x1="190.76" y1="180" x2="330" y2="180"/><path class="cls-5" d="M101,151l37.9,18c4.27,2,6.86,5.17,6.86,9.56v1.12c0,4.39-2.59,7.53-6.86,9.56l-37.9,18a8.85,8.85,0,0,1-4.16,1.12A6.94,6.94,0,0,1,90,201.28c0-3.26,1.8-5.51,4.72-6.86l34-15.18-34-15.18A7.69,7.69,0,0,1,90,157a6.91,6.91,0,0,1,7.42-7A8.25,8.25,0,0,1,101,151Z"/><line class="cls-4" x1="100" y1="250" x2="400" y2="250"/><line class="cls-4" x1="100" y1="300" x2="300" y2="300"/><line class="cls-4" x1="100" y1="350" x2="230" y2="350"/></svg>