<svg id="Layer_1" data-name="Layer 1" xmlns="http://www.w3.org/2000/svg" width="500" height="500" viewBox="0 0 500 500">
  <defs>
    <style>
      .cls-1 {
        fill: #d8d9d8;
      }

      .cls-2 {
        fill: #fff;
      }

      .cls-3 {
        fill: #aeaeae;
      }

      .cls-4 {
        fill: #278134;
      }

      .cls-5 {
        fill: #62b146;
      }

      .cls-6 {
        fill: #9e9e9e;
      }

      .cls-7 {
        fill: #87c46c;
      }
    </style>
  </defs>
  <path class="cls-1" d="M50,50H450a30,30,0,0,1,30,30V412a30,30,0,0,1-30,30H50a30,30,0,0,1-30-30V80A30,30,0,0,1,50,50Z"/>
  <path class="cls-2" d="M440,131.31V384.6A25.47,25.47,0,0,1,414.6,410H76a25.47,25.47,0,0,1-25.4-25.4V131.31"/>
  <path class="cls-3" d="M279.5,80h150a12.5,12.5,0,0,1,0,25h-150a12.5,12.5,0,0,1,0-25Z"/>
  <circle class="cls-3" cx="64.66" cy="92.66" r="12.66"/>
  <circle class="cls-3" cx="102.63" cy="92.66" r="12.66"/>
  <circle class="cls-3" cx="143.13" cy="92.66" r="12.66"/>
  <g>
    <path id="chart-1" class="cls-4" d="M189.046,346.109h-62.9V230.161h62.9Z"/>
    <rect class="cls-5" x="216.855" y="162.249" width="62.903" height="182.911"/>
    <rect class="cls-6" x="107.258" y="360.67" width="274.484" height="21.081"/>
    <rect class="cls-7" x="305.28" y="269.718" width="62.903" height="73.785"/>
  </g>
</svg>
